.
..............................Site Info...........................

 -   http://www.scenetime.com  *_*    

Scenetime .Always on time . friendly online private torrent community ..

     We care to share . Join us on  http://www.scenetime.com 

    Be the first to get new release at  http://www.scenetime.com

        Seed back for speed


...................................NFO:.................................................General
Unique ID                                : 184182930630855364237914130988784707207 (0x8A90579623B2BE80B7DF3C152AC46687)
Format                                   : Matroska
Format version                           : Version 2
File size                                : 2.13 GiB
Duration                                 : 1h 56mn
Overall bit rate                         : 2 629 Kbps
Movie name                               : Bringing Out the Dead --.Title35.DVDRip
Encoded date                             : UTC 2012-03-26 17:34:28
Writing application                      : DVDFab
Writing library                          : libebml v0.7.8 + libmatroska v0.8.1

Video
ID                                       : 1
Format                                   : MPEG-4 Visual
Format profile                           : Advanced Simple@L5
Format settings, BVOP                    : Yes
Format settings, QPel                    : No
Format settings, GMC                     : No warppoints
Format settings, Matrix                  : Default (H.263)
Codec ID                                 : V_MPEG4/ISO/ASP
Codec ID/Info                            : Advanced Simple Profile
Duration                                 : 1h 56mn
Bit rate                                 : 2 192 Kbps
Width                                    : 960 pixels
Height                                   : 414 pixels
Display aspect ratio                     : 2.35:1
Frame rate mode                          : Constant
Frame rate                               : 25.000 fps
Color space                              : YUV
Chroma subsampling                       : 4:2:0
Bit depth                                : 8 bits
Scan type                                : Progressive
Compression mode                         : Lossy
Bits/(Pixel*Frame)                       : 0.221
Stream size                              : 1.78 GiB (83%)
Writing library                          : XviD 1.2.1 (UTC 2008-12-04)
Default                                  : Yes
Forced                                   : No

Audio
ID                                       : 2
Format                                   : AC-3
Format/Info                              : Audio Coding 3
Mode extension                           : CM (complete main)
Format settings, Endianness              : Big
Codec ID                                 : A_AC3
Duration                                 : 1h 56mn
Bit rate mode                            : Constant
Bit rate                                 : 384 Kbps
Channel(s)                               : 6 channels
Channel positions                        : Front: L C R, Side: L R, LFE
Sampling rate                            : 48.0 KHz
Bit depth                                : 16 bits
Compression mode                         : Lossy
Delay relative to video                  : -40ms
Stream size                              : 319 MiB (15%)
Default                                  : Yes
Forced                                   : No